<svg width="50" height="50" fill="none" xmlns="http://www.w3.org/2000/svg"><circle cx="25" cy="25" r="25" fill="#BBDEE2" fill-opacity=".83"/><path d="M16.901 33.404a.502.502 0 01-.373-.16.532.532 0 01-.16-.404l.278-4.686a.511.511 0 01.16-.34l13.96-13.964a.5.5 0 01.373-.16.502.502 0 01.373.16l4.409 4.399a.543.543 0 01.12.586.5.5 0 01-.12.17L21.96 32.978a.554.554 0 01-.34.15l-4.687.276h-.032zm.799-4.984l-.234 3.887 3.887-.234 13.44-13.44-3.653-3.653L17.7 28.42z" fill="#496F74"/><path d="M33.057 21.222a.533.533 0 01-.372-.16l-3.962-3.961a.532.532 0 01.378-.91.54.54 0 01.378.154l3.962 3.972a.532.532 0 01-.384.905zm-13.93 12.007h-.106a.511.511 0 01-.405-.618 1.01 1.01 0 000-.17 1.225 1.225 0 00-.33-.97 1.256 1.256 0 00-.99-.319h-.139a.522.522 0 01-.607-.437.532.532 0 01.437-.617h.191a2.214 2.214 0 012.492 2.47c0 .107 0 .192-.053.277a.564.564 0 01-.532.437l.042-.053z" fill="#496F74"/><path d="M35.954 37.84h-23.26a.543.543 0 01-.532-.533V14.048a.543.543 0 01.533-.532h11.544a.544.544 0 01.533.532.532.532 0 01-.533.533H13.227v22.194h22.194V25.763a.533.533 0 011.065 0v11.544a.543.543 0 01-.532.533z" fill="#496F74"/></svg>