<svg width="50" height="50" fill="none" xmlns="http://www.w3.org/2000/svg"><circle cx="25" cy="25" r="25" fill="#BBDEE2" fill-opacity=".83"/><path d="M35.927 16.17H12.721a.57.57 0 01-.395-.158.53.53 0 01-.164-.382.542.542 0 01.167-.379.58.58 0 01.392-.161h23.206a.57.57 0 01.396.158.531.531 0 010 .764.57.57 0 01-.396.158z" fill="#496F74"/><path d="M27.763 15.964a3.36 3.36 0 00-1.212-1.953 3.577 3.577 0 00-2.221-.768c-.81 0-1.595.271-2.22.768a3.36 3.36 0 00-1.213 1.954l-1.119-.216a4.435 4.435 0 011.6-2.576 4.721 4.721 0 012.93-1.01c1.068 0 2.103.357 2.928 1.01a4.435 4.435 0 011.601 2.575l-1.118.216h.044zm4.104 21.039H16.793a1.764 1.764 0 01-1.153-.48 1.648 1.648 0 01-.513-1.107l-1.12-18.726a.53.53 0 01.144-.384.567.567 0 01.382-.177.566.566 0 01.405.127.533.533 0 01.188.37l1.118 18.725c0 .145.056.284.157.39a.601.601 0 00.391.182h15.075a.624.624 0 00.385-.187.583.583 0 00.163-.385l1.119-18.726a.514.514 0 01.188-.369.553.553 0 01.405-.127.567.567 0 01.381.177c.099.105.15.243.144.384l-1.118 18.726c-.02.419-.202.815-.511 1.109a1.752 1.752 0 01-1.156.478z" fill="#496F74"/><path d="M20.092 33.028a.57.57 0 01-.388-.15.532.532 0 01-.172-.369l-.749-12.861a.523.523 0 01.14-.392.56.56 0 01.386-.18.578.578 0 01.405.134.545.545 0 01.188.373l.749 12.872a.55.55 0 01-.15.39.59.59 0 01-.387.183h-.022zm8.477-.001a.589.589 0 01-.38-.186.55.55 0 01-.146-.386l.75-12.873a.515.515 0 01.176-.368.55.55 0 01.394-.14c.15.01.29.074.39.18a.54.54 0 01.147.393l-.75 12.862a.532.532 0 01-.171.368.57.57 0 01-.388.15h-.022zm-4.239-.001a.57.57 0 01-.396-.158.53.53 0 01-.164-.381V19.614a.53.53 0 01.164-.382.57.57 0 01.791 0 .53.53 0 01.164.382v12.873a.53.53 0 01-.164.381.57.57 0 01-.395.158z" fill="#496F74"/></svg>