<svg width="50" height="50" fill="none" xmlns="http://www.w3.org/2000/svg"><circle cx="25" cy="25" r="25" fill="#BBDEE2" fill-opacity=".83"/><path d="M25.719 37.838h-2.79a1.297 1.297 0 01-1.297-1.297v-1.795a.573.573 0 00-.346-.486l-.843-.346a.551.551 0 00-.627.075l-1.275 1.276a1.33 1.33 0 01-1.828 0l-1.967-1.968a1.287 1.287 0 01-.379-.918 1.244 1.244 0 01.379-.92l1.265-1.275a.572.572 0 00.097-.584l-.346-.854a.605.605 0 00-.497-.378h-1.806a1.298 1.298 0 01-1.297-1.298v-2.789a1.297 1.297 0 011.297-1.297h1.806a.572.572 0 00.476-.346l.356-.843a.606.606 0 00-.086-.627l-1.265-1.276a1.242 1.242 0 01-.379-.919 1.285 1.285 0 01.379-.919l1.967-1.956a1.308 1.308 0 011.828 0l1.275 1.264a.606.606 0 00.584.098l.854-.346a.616.616 0 00.378-.508V14.81a1.298 1.298 0 011.298-1.297h2.789a1.298 1.298 0 011.297 1.297v1.795a.572.572 0 00.346.486l.843.357a.551.551 0 00.627-.087l1.276-1.264a1.319 1.319 0 011.838 0l1.957 1.967a1.297 1.297 0 010 1.827l-1.265 1.276a.574.574 0 00-.097.584l.345.854a.617.617 0 00.508.378h1.795a1.297 1.297 0 011.297 1.297v2.79a1.297 1.297 0 01-1.297 1.297h-1.794a.573.573 0 00-.487.346l-.357.843a.605.605 0 00.087.627l1.265 1.276a1.243 1.243 0 01.378.919 1.286 1.286 0 01-.378.919l-1.957 1.956a1.33 1.33 0 01-1.838 0l-1.276-1.276a.606.606 0 00-.583-.097l-.854.357a.583.583 0 00-.379.497v1.795a1.297 1.297 0 01-1.297 1.297v.011zm-5.514-5.07c.237-.002.47.054.681.162l.779.313a1.644 1.644 0 011.08 1.503v1.795a.217.217 0 00.217.216h2.79a.217.217 0 00.216-.216v-1.795a1.654 1.654 0 011.08-1.513l.779-.325a1.783 1.783 0 011.805.314l1.265 1.276a.195.195 0 00.314 0l1.967-1.968a.238.238 0 000-.303l-1.275-1.275a1.654 1.654 0 01-.292-1.838l.28-.736a1.643 1.643 0 011.504-1.08h1.794a.227.227 0 00.216-.217v-2.8a.227.227 0 00-.216-.216h-1.794a1.654 1.654 0 01-1.514-1.081l-.324-.778a1.654 1.654 0 01.313-1.806l1.276-1.265a.238.238 0 00.054-.162.195.195 0 00-.054-.151l-1.968-1.968c-.108-.108-.194-.108-.313 0L29.6 18.13a1.686 1.686 0 01-1.838.292l-.735-.314a1.643 1.643 0 01-1.081-1.502V14.81a.216.216 0 00-.216-.216h-2.8a.227.227 0 00-.216.216v1.795a1.654 1.654 0 01-1.082 1.513l-.778.324a1.784 1.784 0 01-1.805-.313l-1.265-1.276c-.12-.108-.206-.108-.314 0l-1.967 1.968a.237.237 0 000 .303l1.275 1.275a1.654 1.654 0 01.292 1.838l-.313.735a1.643 1.643 0 01-1.492 1.081h-1.806a.227.227 0 00-.216.216v2.79a.227.227 0 00.216.216h1.806a1.644 1.644 0 011.502 1.08l.325.78a1.654 1.654 0 01-.314 1.805l-1.275 1.275a.237.237 0 000 .303l1.967 1.968a.195.195 0 00.314 0l1.265-1.276a1.665 1.665 0 011.156-.454v.01zm4.12-2.887a4.205 4.205 0 114.205-4.205 4.217 4.217 0 01-4.206 4.205zm0-7.33a3.124 3.124 0 103.124 3.125 3.135 3.135 0 00-3.125-3.124z" fill="#496F74"/></svg>