<svg width="14" height="18" fill="none" xmlns="http://www.w3.org/2000/svg"><g clip-path="url(#clip0)" fill="#4A5568"><path d="M6.694 7.783a3.786 3.786 0 01-2.566-1.24 3.64 3.64 0 01-.932-2.652 3.64 3.64 0 01.932-2.65A3.786 3.786 0 016.694 0c1.927 0 3.49 1.746 3.49 3.891 0 2.146-1.563 3.892-3.49 3.892zm0-6.986a2.972 2.972 0 00-1.989 1.008 2.858 2.858 0 00-.695 2.086 2.858 2.858 0 00.695 2.087c.503.578 1.217.94 1.989 1.008a2.972 2.972 0 001.983-1.011c.5-.579.75-1.327.693-2.084a2.858 2.858 0 00-.693-2.083A2.972 2.972 0 006.694.798zm5.88 16.859H.674a.403.403 0 01-.278-.103.388.388 0 01-.128-.264L0 13.557c0-.664.203-1.313.583-1.863A3.38 3.38 0 012.13 10.47a13.548 13.548 0 018.947 0 3.421 3.421 0 011.56 1.22 3.32 3.32 0 01.603 1.866l-.228 3.732a.396.396 0 01-.13.261.41.41 0 01-.276.106h-.033zM1.05 16.858H12.2l.236-3.389a2.526 2.526 0 00-.467-1.38 2.603 2.603 0 00-1.16-.909 12.778 12.778 0 00-8.37-.015 2.61 2.61 0 00-1.155.905 2.534 2.534 0 00-.47 1.375l.235 3.39v.023z"/></g><defs><clipPath id="clip0"><path fill="#fff" d="M0 0h13.241v17.655H0z"/></clipPath></defs></svg>