<svg width="15" height="15" fill="none" xmlns="http://www.w3.org/2000/svg"><g clip-path="url(#clip0)" fill="#73A2A8"><path d="M14.586 5.045A7.494 7.494 0 009.541.289L9.474.27a7.41 7.41 0 00-4.84.303 7.491 7.491 0 000 13.854 7.4 7.4 0 002.86.574c.67 0 1.337-.09 1.984-.268l.067-.02A7.508 7.508 0 0014.98 8.05a7.496 7.496 0 00-.393-3.004zm-5.045 8.553a6.44 6.44 0 01-7.373-2.493 6.43 6.43 0 016.114-9.988 6.437 6.437 0 015.62 5.738 6.427 6.427 0 01-4.36 6.743z"/><path d="M6.29 8.955l-.153-.153-1.151-1.15a.682.682 0 00-.965 0 .68.68 0 000 .963l1.835 1.834a.611.611 0 00.87 0l4.253-4.252a.681.681 0 000-.964.682.682 0 00-.965 0l-3.569 3.57-.156.152z"/></g><defs><clipPath id="clip0"><path fill="#fff" d="M0 0h15v15H0z"/></clipPath></defs></svg>