<svg width="25" height="25" fill="none" xmlns="http://www.w3.org/2000/svg"><g clip-path="url(#clip0)" fill="#73A2A8"><path d="M24.312 8.408A12.49 12.49 0 0015.903.482L15.791.45A12.56 12.56 0 0012.489 0a12.349 12.349 0 00-4.765.953A12.486 12.486 0 00.972 17.327a12.487 12.487 0 002.768 4.079 12.585 12.585 0 003.984 2.638c1.509.631 3.13.956 4.766.956 1.118 0 2.23-.151 3.308-.446.038-.01.075-.023.112-.033a12.515 12.515 0 007.673-6.248 12.496 12.496 0 00.73-9.865zm-8.409 14.256a10.733 10.733 0 01-12.289-4.156A10.715 10.715 0 017.987 2.774a10.733 10.733 0 0112.178 2.228 10.715 10.715 0 01-4.262 17.662z"/><path d="M10.483 14.925l-.254-.255-1.919-1.916a1.137 1.137 0 00-1.854 1.237c.057.138.14.263.246.368l3.059 3.056a1.018 1.018 0 001.448 0l7.089-7.087A1.135 1.135 0 1016.69 8.72l-5.948 5.95-.26.254z"/></g><defs><clipPath id="clip0"><path fill="#fff" d="M0 0h25v25H0z"/></clipPath></defs></svg>