<svg xmlns="http://www.w3.org/2000/svg" viewBox="0 0 677.68 314.85"><defs><style>.cls-1{fill:#ffd273}</style></defs><g id="Слой_2" data-name="Слой 2"><g id="Слой_1-2" data-name="Слой 1"><path class="cls-1" d="M462.24 195.9l-9.66 7.8-9.7-7.73-37.31-29.73-167.22 135.33h426.52L496.49 168.23l-34.25 27.67z"/><path class="cls-1" d="M663.08 14.84l-422.94-1.79 212.37 170.82L663.08 14.84zm1.79 267.02V30.97l-156.06 127.3 156.06 123.59z"/><path d="M224.48 10.88V51a6.93 6.93 0 006.93 7 6.94 6.94 0 006.94-7V32.76l154.82 123.61-154.82 125.49v-18a6.94 6.94 0 00-6.94-6.94 6.94 6.94 0 00-6.93 6.94V304a10.86 10.86 0 0010.7 10.87h.22l431.4-.17a10.89 10.89 0 0010.88-10.88V10.88A10.88 10.88 0 00666.8 0H235.35a10.88 10.88 0 00-10.87 10.88zm15.66 2.17l422.93 1.79-210.56 169zm-1.79 288.52l167.22-135.33L442.88 196l9.7 7.73 9.66-7.8 34.24-27.67 168.39 133.31zm426.52-19.71L508.81 158.27 664.87 31z" fill="#e0a74b"/><path d="M271.5 84.84H9.86a9.86 9.86 0 000 19.72H271.5a9.86 9.86 0 100-19.72zm43.01 62.73H106.63a9.86 9.86 0 100 19.71h207.88a9.86 9.86 0 100-19.71zm-68.1 62.72H58.24a9.86 9.86 0 000 19.71h188.17a9.86 9.86 0 100-19.71z" fill="#496f74"/></g></g></svg>